<?xml version="1.0" encoding="UTF-8"?>
<!DOCTYPE svg PUBLIC "-//W3C//DTD SVG 1.1//EN" "http://www.w3.org/Graphics/SVG/1.1/DTD/svg11.dtd">
<!-- Creator: CorelDRAW X7 -->
<svg xmlns="http://www.w3.org/2000/svg" xml:space="preserve" width="8.26772in" height="11.6929in" version="1.1" style="shape-rendering:geometricPrecision; text-rendering:geometricPrecision; image-rendering:optimizeQuality; fill-rule:evenodd; clip-rule:evenodd"
viewBox="0 0 8268 11693"
 xmlns:xlink="http://www.w3.org/1999/xlink">
 <defs>
  <style type="text/css">
   <![CDATA[
    .str1 {stroke:#3E4095;stroke-width:12.5}
    .str0 {stroke:#3E4095;stroke-width:27.7795}
    .fil0 {fill:none}
    .fil1 {fill:#3C3F89}
    .fil2 {fill:#3E4095}
    .fil6 {fill:#B8BBBF}
    .fil5 {fill:#FEFEFE}
    .fil3 {fill:#3C3F89;fill-rule:nonzero}
    .fil4 {fill:#FEFEFE;fill-rule:nonzero}
   ]]>
  </style>
 </defs>
 <g id="Layer_x0020_1">
  <metadata id="CorelCorpID_0Corel-Layer"/>
  <g id="_418708056">
   <path class="fil0 str0" d="M3468 2368c314,0 569,261 569,582 0,321 -255,582 -569,582 -314,0 -568,-261 -568,-582 0,-321 254,-582 568,-582z"/>
   <polygon class="fil1" points="2919,2801 4017,2801 4026,2837 2911,2837 "/>
   <polygon class="fil2" points="2911,3067 4025,3067 4017,3104 2920,3104 "/>
   <path class="fil3" d="M3005 3025c1,2 2,4 5,4l22 4 0 6c-15,0 -28,0 -38,0 -10,0 -23,0 -39,0l-1 -6 23 -4c3,-1 5,-2 5,-3 0,-7 0,-14 0,-23l0 -91c0,-7 0,-14 0,-19 0,-2 -1,-3 -4,-3l-23 -5 -1 -6c16,1 29,1 37,1 12,0 23,0 33,-1l115 95c4,4 9,8 14,12 0,-5 0,-10 0,-15l0 -59c0,-8 0,-14 -1,-19 0,-2 -1,-3 -4,-4l-22 -4 -1 -6c16,1 29,1 39,1 10,0 23,0 39,-1l0 6 -23 5c-3,0 -4,1 -4,3 -1,5 -1,12 -1,19l0 127 -20 1 -136 -112c-4,-4 -9,-8 -14,-13 0,6 0,11 0,16l0 72c0,9 0,16 0,22zm302 -22c0,4 0,9 0,12 0,4 0,7 0,10 0,2 2,4 6,4l21 4 1 6c-16,0 -34,0 -53,0 -21,0 -39,0 -54,0l-1 -6 23 -4c3,-1 4,-2 5,-3 0,-4 0,-7 0,-11 0,-3 0,-8 0,-12l0 -91c0,-4 0,-7 0,-10 0,-3 0,-6 0,-9 -1,-2 -2,-3 -5,-3l-23 -5 0 -6c16,1 34,1 53,1 20,0 38,0 54,-1l1 6 -23 4c-3,1 -5,2 -5,4 0,3 0,5 0,9 0,3 0,6 0,10l0 91zm104 -123l44 0c28,0 57,0 88,-1l1 1 -11 38 -9 1 -11 -28 -68 0 0 61 10 0c10,0 21,0 32,0 3,0 5,-2 6,-3l6 -16 12 0c-1,11 -1,19 -1,24 0,6 0,14 1,25l-12 0 -6 -16c-1,-2 -3,-3 -5,-3 -12,0 -23,0 -33,0l-10 0 0 39c0,8 1,16 1,25l69 0 22 -30 11 -1 -5 42 -1 1c-29,0 -57,0 -84,0l-46 0c-15,0 -30,0 -46,0l-1 -6 23 -4c3,-1 5,-2 5,-3 0,-4 0,-7 0,-11 1,-3 1,-8 1,-12l0 -91c0,-4 0,-7 -1,-10 0,-3 0,-6 0,-9 0,-2 -1,-3 -4,-3l-23 -5 -1 -6c16,1 32,1 46,1zm287 10c-8,-2 -16,-3 -24,-3 -13,0 -23,3 -32,7 -8,5 -12,11 -12,19 0,4 1,8 4,11 3,3 6,6 11,9 5,2 10,4 16,6 6,2 12,4 18,6 7,2 14,5 22,7 7,3 13,6 19,10 5,3 10,8 14,13 3,5 5,11 5,18 0,15 -9,27 -27,36 -17,9 -41,13 -70,13 -21,0 -41,-2 -62,-6l-1 -1 10 -41 10 -1 13 35c9,2 18,3 28,3 15,0 27,-2 35,-7 9,-5 14,-11 14,-20 0,-4 -1,-8 -4,-11 -3,-4 -7,-7 -12,-9 -4,-3 -10,-5 -16,-7 -6,-2 -12,-4 -18,-6 -7,-2 -14,-4 -21,-7 -8,-2 -14,-5 -19,-9 -6,-4 -10,-8 -14,-13 -3,-5 -5,-11 -5,-18 0,-14 8,-26 25,-34 17,-9 39,-13 66,-13 17,0 36,2 58,5l1 1 -10 37 -10 1 -12 -31zm180 92c3,4 5,8 7,12 2,-4 4,-8 6,-12l42 -73c2,-4 4,-8 5,-10 2,-3 2,-5 2,-6 0,-1 0,-2 -1,-3 -1,-1 -3,-1 -5,-2l-17 -3 0 -6c16,1 30,1 41,1 11,0 23,0 37,-1l1 6 -19 4c-4,1 -7,2 -9,4 -2,2 -5,5 -7,9l-85 137 -18 1 -75 -137c-3,-5 -5,-9 -8,-10 -2,-2 -5,-4 -10,-5l-16 -3 -1 -6c16,1 31,1 47,1 21,0 41,0 61,-1l1 6 -17 3c-2,1 -4,1 -5,2 -1,1 -2,2 -2,3 0,2 1,4 2,6 1,3 3,6 5,10l38 73z"/>
   <path class="fil2 str1" d="M2706 3181l195 0c193,486 926,588 1135,0l194 0 0 244 -109 -2c-268,496 -1067,399 -1303,1l-112 0 0 -243z"/>
   <path class="fil4" d="M2949 3414l14 15 -17 16 14 16 18 -15 13 15 -49 44 -14 -15 20 -18 -14 -16 -20 18 -14 -15 49 -45zm23 73c7,-8 14,-13 23,-13 8,-1 16,2 25,9 8,7 13,14 13,23 1,8 -2,16 -9,25 -5,5 -10,10 -15,12 -5,2 -11,2 -16,1 -6,-1 -11,-4 -17,-8 -5,-5 -9,-10 -12,-15 -2,-5 -2,-10 -1,-16 1,-6 4,-12 9,-18zm15 13c-4,5 -6,10 -6,14 0,4 1,7 5,10 3,2 6,3 10,3 4,-1 8,-4 13,-10 4,-4 6,-9 6,-13 0,-3 -2,-7 -5,-9 -4,-3 -7,-4 -11,-3 -4,0 -8,3 -12,8zm59 7l16 10 2 45 19 -32 16 11 -35 56 -16 -10 -2 -44 -19 31 -16 -10 35 -57zm63 38l47 26 -7 13 -30 -17 -5 9 28 16 -7 12 -27 -16 -7 12 31 17 -7 13 -49 -27 33 -58zm31 67l18 7c-1,3 -1,5 0,7 1,4 3,6 6,8 3,1 5,1 7,0 2,0 4,-2 4,-3 1,-2 1,-4 0,-5 -1,-2 -3,-5 -8,-8 -7,-5 -12,-10 -14,-15 -2,-4 -3,-9 -1,-14 2,-3 4,-6 7,-8 3,-2 7,-3 11,-3 4,0 9,2 16,4 7,4 13,7 16,12 2,5 3,10 1,17l-18 -6c1,-3 0,-6 -1,-8 -1,-2 -2,-3 -5,-4 -2,-1 -4,-1 -5,-1 -2,1 -3,1 -4,3 0,1 0,2 1,3 0,1 2,3 5,5 7,5 13,9 15,13 3,3 5,6 5,10 1,3 0,7 -1,10 -2,4 -5,7 -8,9 -4,3 -8,4 -12,4 -5,0 -10,-1 -16,-4 -10,-4 -16,-9 -19,-15 -2,-5 -2,-11 0,-18zm75 -18l58 21 -6 15 -19 -7 -17 47 -19 -7 17 -47 -20 -7 6 -15zm62 21l22 5 7 25 19 -18 21 5 -34 32 -6 26 -20 -4 7 -27 -16 -44zm132 81l-23 -3 -4 11 -21 -3 34 -63 22 4 15 69 -21 -3 -2 -12zm-2 -14l-4 -25 -10 23 14 2zm32 -37l19 0 24 37 1 -37 19 1 -1 66 -19 0 -24 -37 -1 36 -19 0 1 -66zm74 0l30 -1c6,0 10,1 14,2 4,2 7,4 9,7 3,3 5,6 6,10 1,4 2,9 2,13 0,7 0,13 -2,17 -1,4 -3,7 -6,10 -3,2 -6,4 -9,5 -4,2 -8,2 -12,2l-30 1 -2 -66zm20 15l2 36 5 0c4,-1 7,-1 9,-2 1,-1 3,-3 4,-5 0,-3 1,-7 1,-12 -1,-7 -2,-12 -4,-14 -3,-3 -6,-4 -12,-4l-5 1zm70 -18l29 -7c6,-1 11,-2 15,-1 3,1 7,3 10,5 3,2 5,6 7,9 2,4 4,8 5,12 1,7 2,13 1,17 0,4 -2,8 -4,11 -2,3 -5,6 -8,7 -4,2 -8,4 -11,5l-30 6 -14 -64zm23 10l8 35 5 -1c4,-1 7,-2 8,-3 2,-2 3,-4 3,-6 1,-3 0,-7 -1,-12 -2,-7 -4,-11 -6,-13 -3,-2 -7,-2 -12,-1l-5 1zm42 -24l53 -15 3 13 -32 10 3 10 30 -9 4 13 -31 9 4 12 34 -9 4 14 -53 15 -19 -63zm53 -16l20 -7 30 40 -2 -50 19 -7 0 71 -21 7 -46 -54zm75 7c-5,-9 -6,-18 -4,-26 3,-8 9,-15 18,-20 10,-5 19,-6 27,-4 8,3 14,9 19,18 4,7 6,13 6,19 0,5 -2,10 -5,15 -3,5 -8,9 -14,12 -7,4 -12,6 -18,6 -5,0 -11,-1 -16,-5 -5,-3 -9,-8 -13,-15zm18 -9c3,6 7,10 10,11 4,1 7,1 11,-1 4,-2 6,-5 7,-8 1,-4 0,-9 -4,-16 -3,-5 -6,-9 -10,-10 -3,-1 -7,-1 -11,1 -3,2 -5,5 -6,8 -1,4 0,9 3,15zm23 -48l50 -36 9 13 -17 13 30 40 -17 12 -29 -40 -17 12 -9 -14zm53 -38l16 -13 43 50 -15 13 -44 -50zm45 6c-7,-8 -11,-16 -11,-24 0,-9 3,-17 11,-24 8,-8 16,-12 24,-12 8,0 16,4 24,11 5,6 9,11 11,17 1,5 1,10 0,16 -2,5 -5,10 -10,16 -5,5 -10,8 -16,10 -5,2 -10,2 -16,0 -6,-1 -11,-5 -17,-10zm15 -14c4,4 9,7 12,7 4,1 8,-1 11,-4 3,-3 4,-6 4,-10 -1,-4 -3,-8 -9,-13 -4,-5 -8,-7 -12,-7 -4,-1 -7,1 -10,4 -3,3 -4,6 -4,10 0,4 3,8 8,13zm11 -56l10 -16 45 1 -30 -21 11 -16 54 38 -11 16 -44 -1 30 21 -11 16 -54 -38z"/>
   <path class="fil2" d="M3110 3127l131 0c18,5 19,3 25,18l0 99 -193 1 0 -16 15 -3 3 -3 0 -5 1 -64c3,-17 3,-18 18,-27z"/>
   <path class="fil5" d="M3119 3157c12,-9 11,-10 23,0l0 71 -23 0c0,-24 0,-47 0,-71z"/>
   <path class="fil5" d="M3161 3157c13,-9 12,-10 25,0l0 70 -25 0c0,-24 0,-47 0,-70z"/>
   <path class="fil5" d="M3208 3157c12,-9 11,-10 23,0l0 72 -23 0c0,-24 0,-48 0,-72z"/>
   <polygon class="fil2" points="3266,3209 3474,3143 3757,3266 3701,3266 3701,3322 3659,3322 3656,3244 3519,3194 3473,3177 3349,3215 3266,3244 "/>
   <polygon class="fil2" points="3250,3220 3479,3172 3480,3290 3252,3290 "/>
   <polygon class="fil5" points="3275,3244 3291,3244 3291,3277 3275,3277 "/>
   <polygon class="fil5" points="3315,3233 3330,3233 3330,3280 3315,3280 "/>
   <polygon class="fil5" points="3355,3217 3373,3217 3373,3279 3355,3279 "/>
   <polygon class="fil5" points="3394,3204 3417,3204 3417,3282 3394,3282 "/>
   <polygon class="fil5" points="3429,3193 3458,3193 3458,3281 3429,3281 "/>
   <path class="fil2" d="M3125 3281l355 -4c3,2 0,15 5,18 17,10 91,26 110,27l60 -1 1 -44 46 1 -1 44 50 2 0 -89 15 0 0 116 7 6 -1 -214 31 0 0 219c0,36 -90,78 -120,88l-123 -1 0 43 -49 0 0 -42 -47 0 0 41 -59 -1 0 -36 -93 1 0 -19 280 -5 0 -13 -240 3 -41 1 -74 0 -1 -19 248 0 0 -11 0 -6 -248 1 -77 -1 0 -31 37 0 0 -16 -71 1 0 -19 69 0 0 -5 0 -3 -69 0 0 -32z"/>
   <polygon class="fil5" points="3213,3305 3264,3305 3264,3324 3213,3324 "/>
   <polygon class="fil5" points="3216,3340 3262,3340 3262,3362 3216,3362 "/>
   <polygon class="fil5" points="3306,3307 3332,3307 3332,3325 3306,3325 "/>
   <polygon class="fil5" points="3357,3310 3374,3310 3374,3320 3357,3320 "/>
   <polygon class="fil5" points="3399,3307 3417,3307 3417,3325 3399,3325 "/>
   <polygon class="fil5" points="3429,3301 3457,3301 3457,3323 3429,3323 "/>
   <polygon class="fil5" points="3432,3336 3458,3336 3458,3365 3432,3365 "/>
   <polygon class="fil5" points="3397,3337 3418,3337 3418,3367 3397,3367 "/>
   <polygon class="fil5" points="3358,3335 3381,3335 3381,3364 3358,3364 "/>
   <polygon class="fil5" points="3305,3337 3324,3337 3324,3364 3305,3364 "/>
   <polygon class="fil5" points="3624,3349 3656,3349 3656,3369 3624,3369 "/>
   <polygon class="fil5" points="3610,3410 3646,3410 3646,3430 3610,3430 "/>
   <polygon class="fil2" points="3818,3189 3836,3189 3836,3350 3818,3350 "/>
   <polygon class="fil2" points="3850,3194 3890,3194 3890,3261 3850,3261 "/>
   <polygon class="fil2" points="3857,3128 3915,3128 3915,3181 3857,3181 "/>
   <path class="fil5" d="M2818 3262c23,0 42,20 42,43 0,24 -19,44 -42,44 -24,0 -43,-20 -43,-44 0,-23 19,-43 43,-43z"/>
   <path class="fil5" d="M4132 3262c24,0 43,20 43,43 0,24 -19,44 -43,44 -24,0 -43,-20 -43,-44 0,-23 19,-43 43,-43z"/>
   <polygon class="fil6" points="3470,2651 3502,2651 3502,2731 3521,2731 3520,2772 3447,2772 3447,2730 3470,2730 "/>
   <path class="fil5" d="M3460 2740l8 -5c9,-10 9,-4 20,7 5,12 14,17 6,24 -2,2 -10,3 -14,7 -1,-1 -4,2 -8,2 -5,1 -11,1 -13,1 -14,-1 -11,2 -18,-11 5,-4 1,-6 2,-10 2,-5 8,-11 17,-15z"/>
  </g>
 </g>
</svg>
