<?xml version="1.0" encoding="UTF-8"?>
<!DOCTYPE svg PUBLIC "-//W3C//DTD SVG 1.1//EN" "http://www.w3.org/Graphics/SVG/1.1/DTD/svg11.dtd">
<!-- Creator: CorelDRAW X7 -->
<svg xmlns="http://www.w3.org/2000/svg" xml:space="preserve" width="8.26772in" height="11.6929in" version="1.1" style="shape-rendering:geometricPrecision; text-rendering:geometricPrecision; image-rendering:optimizeQuality; fill-rule:evenodd; clip-rule:evenodd"
viewBox="0 0 8268 11693"
 xmlns:xlink="http://www.w3.org/1999/xlink">
 <defs>
  <style type="text/css">
   <![CDATA[
    .fil0 {fill:#3E4095;fill-rule:nonzero}
   ]]>
  </style>
 </defs>
 <g id="Layer_x0020_1">
  <metadata id="CorelCorpID_0Corel-Layer"/>
  <g id="_420691784">
   <path class="fil0" d="M1639 3964c0,97 0,146 -37,184 -10,10 -18,15 -24,19 -8,4 -11,6 -11,9 0,2 2,3 4,3 2,0 6,-1 10,-2 10,-5 18,-9 25,-13 47,-29 73,-63 83,-94 10,-27 12,-59 12,-87 0,-25 -1,-48 -1,-69l0 -92c0,-75 0,-89 1,-104 1,-18 5,-26 18,-28 6,-1 9,-2 14,-2 6,0 9,-1 9,-4 0,-4 -3,-5 -10,-5 -19,0 -50,2 -62,2 -13,0 -44,-2 -70,-2 -8,0 -11,1 -11,5 0,3 3,4 8,4 7,0 15,1 19,2 17,3 21,11 22,28 1,15 1,29 1,104l0 142zm288 95c125,0 204,-89 204,-202 0,-113 -76,-185 -199,-185 -148,0 -204,109 -204,194 0,87 57,193 199,193zm21 -25c-95,0 -152,-81 -152,-184 0,-122 65,-154 122,-154 80,0 144,69 144,179 0,143 -80,159 -114,159zm294 -198c-2,0 -3,-1 -3,-3l0 -11c0,-75 0,-89 1,-104 1,-18 5,-26 18,-28 6,-1 10,-2 14,-2 6,0 9,-1 9,-4 0,-4 -3,-5 -10,-5 -19,0 -50,2 -62,2 -14,0 -45,-2 -71,-2 -7,0 -11,1 -11,5 0,3 3,4 9,4 7,0 15,1 19,2 16,3 20,11 21,28 1,15 1,29 1,104l0 87c0,45 0,84 -2,105 -2,14 -5,25 -15,27 -4,1 -10,2 -17,2 -6,0 -8,2 -8,4 0,4 3,5 10,5 19,0 50,-1 62,-1 14,0 45,1 77,1 6,0 10,-1 10,-5 0,-2 -3,-4 -8,-4 -8,0 -19,-1 -25,-2 -15,-2 -18,-13 -20,-26 -2,-22 -2,-61 -2,-106l0 -43c0,-3 1,-3 3,-3l188 0c2,0 3,1 3,3l0 43c0,45 0,84 -2,105 -2,14 -5,25 -14,27 -5,1 -11,2 -18,2 -6,0 -8,2 -8,4 0,4 3,5 10,5 19,0 51,-1 62,-1 14,0 45,1 77,1 6,0 10,-1 10,-5 0,-2 -3,-4 -8,-4 -8,0 -18,-1 -25,-2 -15,-2 -18,-13 -20,-26 -2,-22 -2,-61 -2,-106l0 -87c0,-75 0,-89 1,-104 1,-18 5,-26 18,-28 6,-1 11,-2 15,-2 5,0 8,-1 8,-4 0,-4 -3,-5 -10,-5 -19,0 -50,2 -62,2 -13,0 -45,-2 -71,-2 -7,0 -11,1 -11,5 0,3 3,4 9,4 7,0 15,1 19,2 16,3 20,11 21,28 1,15 1,29 1,104l0 11c0,2 -1,3 -3,3l-188 0zm380 -58l2 0c8,9 63,71 117,124 51,51 114,116 145,145 6,6 12,11 17,11 5,0 7,-4 7,-15l5 -312c0,-27 4,-38 18,-41 6,-2 10,-2 15,-2 6,0 9,-1 9,-4 0,-4 -5,-5 -11,-5 -25,0 -43,2 -49,2 -10,0 -34,-2 -59,-2 -8,0 -13,1 -13,5 0,3 2,4 8,4 7,0 18,0 26,3 12,5 16,14 17,44l4 222 -2 0c-8,-8 -75,-79 -108,-113 -72,-71 -147,-152 -153,-158 -9,-9 -13,-15 -19,-15 -5,0 -6,7 -6,17l-5 292c0,43 -2,57 -15,61 -7,2 -16,2 -22,2 -5,0 -8,1 -8,4 0,5 5,5 11,5 26,0 49,-1 53,-1 10,0 29,1 61,1 7,0 12,-1 12,-5 0,-3 -3,-4 -9,-4 -7,0 -17,0 -25,-3 -10,-4 -17,-16 -17,-55l-6 -207zm536 131c0,48 0,87 -3,108 -1,14 -4,22 -14,24 -4,1 -10,2 -18,2 -6,0 -8,2 -8,4 0,4 4,5 10,5 20,0 51,-1 63,-1 13,0 44,1 76,1 6,0 10,-1 10,-5 0,-2 -3,-4 -8,-4 -7,0 -18,-1 -25,-2 -15,-2 -18,-11 -20,-24 -2,-21 -2,-60 -2,-108l0 -87c0,-75 0,-89 1,-104 1,-18 5,-26 18,-28 6,-1 10,-2 15,-2 5,0 8,-1 8,-5 0,-3 -4,-4 -10,-4 -19,0 -48,2 -61,2 -14,0 -45,-2 -64,-2 -8,0 -12,1 -12,4 0,4 3,5 8,5 6,0 13,1 18,2 11,2 16,11 17,28 1,15 1,29 1,104l0 87zm211 150c26,0 54,-4 78,-20 36,-23 47,-57 47,-86 0,-47 -22,-81 -81,-126l-14 -10c-41,-31 -52,-49 -52,-71 0,-30 22,-51 58,-51 32,0 47,15 54,24 10,13 13,28 13,33 0,6 1,9 5,9 4,0 5,-4 5,-15 0,-39 2,-53 2,-59 0,-4 -2,-5 -7,-6 -13,-4 -33,-9 -65,-9 -69,0 -114,39 -114,94 0,39 18,74 73,116l22 18c41,32 49,55 49,79 0,26 -22,56 -66,56 -31,0 -60,-13 -71,-49 -2,-9 -4,-19 -4,-26 0,-4 -1,-8 -5,-8 -4,0 -6,5 -6,13 -1,8 -3,37 -3,64 0,11 2,14 10,17 21,10 43,13 72,13zm315 -136c2,0 4,1 5,4l39 104c3,6 -1,11 -4,12 -5,0 -7,1 -7,4 0,4 6,4 15,4 39,1 75,1 93,1 18,0 22,-1 22,-5 0,-3 -2,-4 -6,-4 -6,0 -13,0 -21,-2 -10,-3 -24,-9 -43,-54 -32,-74 -111,-276 -122,-303 -5,-11 -8,-16 -13,-16 -5,0 -8,6 -14,20l-123 310c-10,25 -20,41 -42,44 -4,1 -11,1 -16,1 -4,0 -6,1 -6,4 0,4 3,5 10,5 25,0 53,-1 58,-1 15,0 37,1 52,1 6,0 9,-1 9,-5 0,-3 -2,-4 -8,-4l-7 0c-15,0 -20,-6 -20,-15 0,-6 3,-18 8,-30l26 -71c1,-3 2,-4 5,-4l110 0zm-100 -24c-2,0 -3,-2 -2,-4l45 -121c0,-2 1,-5 3,-5 1,0 2,3 2,5l45 122c0,1 0,3 -3,3l-90 0zm281 -121l1 0c9,9 64,71 117,124 52,51 115,116 146,145 5,6 11,11 17,11 4,0 6,-4 6,-15l5 -312c1,-27 5,-38 19,-41 6,-2 10,-2 15,-2 5,0 8,-1 8,-4 0,-4 -5,-5 -11,-5 -24,0 -43,2 -48,2 -11,0 -34,-2 -60,-2 -7,0 -13,1 -13,5 0,3 2,4 8,4 7,0 19,0 26,3 12,5 17,14 17,44l5 222 -3 0c-8,-8 -74,-79 -108,-113 -72,-71 -147,-152 -153,-158 -8,-9 -13,-15 -18,-15 -5,0 -7,7 -7,17l-4 292c-1,43 -3,57 -15,61 -7,2 -16,2 -23,2 -4,0 -7,1 -7,4 0,5 4,5 10,5 26,0 49,-1 54,-1 9,0 29,1 61,1 7,0 11,-1 11,-5 0,-3 -3,-4 -8,-4 -8,0 -17,0 -26,-3 -10,-4 -16,-16 -17,-55l-5 -207zm682 187c0,-25 0,-45 0,-59 1,-18 6,-26 19,-28 6,-1 10,-2 13,-2 4,0 7,-1 7,-4 0,-4 -4,-5 -10,-5 -16,0 -42,2 -58,2 -14,0 -46,-2 -71,-2 -7,0 -11,1 -11,5 0,3 3,4 8,4 7,0 15,1 19,2 16,3 21,11 21,28 1,14 1,33 1,58l0 46c0,9 -2,15 -10,18 -11,6 -29,6 -42,6 -104,0 -171,-80 -171,-186 0,-60 18,-97 45,-120 35,-29 71,-31 98,-31 56,0 95,23 110,38 13,14 15,30 17,41 0,4 1,7 5,7 4,0 5,-3 5,-11 0,-61 3,-75 3,-80 0,-4 -1,-6 -6,-6 -12,-1 -29,-4 -39,-6 -10,-2 -54,-8 -88,-8 -41,0 -85,4 -132,32 -45,27 -86,83 -86,162 0,136 107,193 228,193 38,0 86,-5 119,-22 5,-4 6,-5 6,-18l0 -54zm81 -56c0,45 0,84 -3,105 -2,14 -4,25 -14,27 -5,1 -11,2 -18,2 -6,0 -8,2 -8,4 0,4 4,5 10,5 10,0 23,-1 34,-1 12,0 23,0 28,0 15,0 30,0 51,1 22,1 49,2 86,2 19,0 23,0 26,-13 3,-10 7,-44 7,-55 0,-5 0,-9 -4,-9 -4,0 -5,2 -6,8 -3,20 -9,30 -22,36 -13,6 -33,6 -46,6 -50,0 -58,-7 -59,-41 -1,-15 0,-60 0,-77l0 -39c0,-3 0,-5 3,-5 11,0 60,1 70,2 18,2 25,9 27,19 2,6 2,13 2,18 0,2 1,4 5,4 4,0 4,-5 4,-9 0,-4 2,-23 2,-33 2,-25 4,-33 4,-36 0,-3 -1,-4 -3,-4 -3,0 -5,2 -8,6 -5,5 -12,7 -24,8 -11,1 -68,1 -79,1 -3,0 -3,-2 -3,-6l0 -125c0,-3 1,-5 3,-5 10,0 62,1 70,2 25,3 30,9 33,18 3,6 3,14 3,18 0,4 1,7 5,7 3,0 4,-3 5,-6 1,-6 2,-27 2,-32 2,-23 4,-29 4,-32 0,-3 0,-5 -3,-5 -2,0 -5,2 -8,2 -4,1 -12,2 -21,3 -9,1 -108,1 -123,1 -7,0 -19,-1 -32,-1 -12,0 -26,-1 -39,-1 -8,0 -11,1 -11,5 0,3 3,4 8,4 7,0 15,1 19,2 17,3 21,11 22,28 1,15 1,29 1,104l0 87zm254 0c0,45 0,84 -2,105 -2,14 -5,25 -15,27 -4,1 -10,2 -17,2 -6,0 -8,2 -8,4 0,4 3,5 10,5 10,0 22,-1 34,-1 12,0 22,0 28,0 12,0 29,1 48,3 19,1 39,3 57,3 91,0 143,-35 165,-59 28,-28 54,-75 54,-137 0,-59 -23,-100 -48,-126 -54,-56 -136,-56 -198,-56 -29,0 -60,2 -76,2 -13,0 -45,-2 -71,-2 -7,0 -11,1 -11,5 0,3 3,4 9,4 7,0 15,1 19,2 16,3 20,11 21,28 1,15 1,29 1,104l0 87zm62 -95c0,-39 0,-82 0,-98 0,-6 2,-8 6,-10 4,-2 23,-4 32,-4 39,0 95,6 141,50 21,20 47,60 47,123 0,51 -10,96 -42,123 -29,26 -63,35 -113,35 -39,0 -58,-10 -65,-19 -4,-6 -5,-25 -5,-38 -1,-9 -1,-47 -1,-99l0 -63zm338 95c0,48 0,87 -2,108 -2,14 -5,22 -15,24 -4,1 -10,2 -17,2 -6,0 -8,2 -8,4 0,4 3,5 10,5 19,0 50,-1 62,-1 13,0 44,1 77,1 5,0 9,-1 9,-5 0,-2 -2,-4 -8,-4 -7,0 -18,-1 -25,-2 -15,-2 -18,-11 -20,-24 -2,-21 -2,-60 -2,-108l0 -87c0,-75 0,-89 1,-104 1,-18 5,-26 18,-28 6,-1 10,-2 15,-2 5,0 8,-1 8,-5 0,-3 -4,-4 -10,-4 -19,0 -48,2 -60,2 -15,0 -46,-2 -65,-2 -7,0 -11,1 -11,4 0,4 3,5 8,5 5,0 12,1 17,2 11,2 16,11 17,28 1,15 1,29 1,104l0 87zm461 56c0,-25 0,-45 0,-59 1,-18 5,-26 19,-28 6,-1 9,-2 13,-2 4,0 7,-1 7,-4 0,-4 -4,-5 -10,-5 -17,0 -43,2 -58,2 -15,0 -46,-2 -72,-2 -7,0 -10,1 -10,5 0,3 3,4 7,4 7,0 16,1 20,2 16,3 20,11 21,28 0,14 0,33 0,58l0 46c0,9 -2,15 -9,18 -12,6 -29,6 -42,6 -104,0 -172,-80 -172,-186 0,-60 18,-97 46,-120 34,-29 70,-31 97,-31 56,0 96,23 110,38 13,14 16,30 17,41 1,4 2,7 5,7 4,0 6,-3 6,-11 0,-61 3,-75 3,-80 0,-4 -1,-6 -7,-6 -11,-1 -28,-4 -39,-6 -10,-2 -53,-8 -87,-8 -42,0 -85,4 -133,32 -45,27 -86,83 -86,162 0,136 107,193 228,193 39,0 87,-5 119,-22 6,-4 7,-5 7,-18l0 -54zm145 -129c-2,0 -3,-1 -3,-3l0 -11c0,-75 0,-89 1,-104 1,-18 5,-26 18,-28 6,-1 10,-2 14,-2 6,0 9,-1 9,-4 0,-4 -3,-5 -10,-5 -19,0 -50,2 -62,2 -14,0 -45,-2 -71,-2 -7,0 -11,1 -11,5 0,3 3,4 9,4 7,0 15,1 19,2 16,3 20,11 21,28 1,15 1,29 1,104l0 87c0,45 0,84 -2,105 -2,14 -5,25 -15,27 -4,1 -10,2 -17,2 -6,0 -8,2 -8,4 0,4 3,5 10,5 19,0 50,-1 62,-1 14,0 45,1 77,1 6,0 10,-1 10,-5 0,-2 -3,-4 -8,-4 -8,0 -19,-1 -25,-2 -15,-2 -18,-13 -20,-26 -2,-22 -2,-61 -2,-106l0 -43c0,-3 1,-3 3,-3l188 0c2,0 3,1 3,3l0 43c0,45 0,84 -2,105 -2,14 -5,25 -15,27 -4,1 -10,2 -17,2 -6,0 -8,2 -8,4 0,4 3,5 10,5 19,0 50,-1 62,-1 14,0 45,1 77,1 6,0 10,-1 10,-5 0,-2 -3,-4 -8,-4 -8,0 -18,-1 -25,-2 -15,-2 -18,-13 -20,-26 -2,-22 -2,-61 -2,-106l0 -87c0,-75 0,-89 1,-104 1,-18 5,-26 18,-28 6,-1 10,-2 14,-2 6,0 9,-1 9,-4 0,-4 -3,-5 -10,-5 -19,0 -50,2 -62,2 -14,0 -45,-2 -71,-2 -7,0 -11,1 -11,5 0,3 3,4 9,4 7,0 15,1 19,2 16,3 20,11 21,28 1,15 1,29 1,104l0 11c0,2 -1,3 -3,3l-188 0zm358 73c0,48 0,87 -3,108 -1,14 -4,22 -14,24 -5,1 -10,2 -18,2 -6,0 -8,2 -8,4 0,4 4,5 10,5 20,0 51,-1 62,-1 14,0 45,1 77,1 6,0 10,-1 10,-5 0,-2 -3,-4 -8,-4 -8,0 -19,-1 -25,-2 -15,-2 -19,-11 -20,-24 -2,-21 -2,-60 -2,-108l0 -87c0,-75 0,-89 1,-104 1,-18 5,-26 18,-28 6,-1 10,-2 15,-2 5,0 8,-1 8,-5 0,-3 -4,-4 -11,-4 -18,0 -47,2 -60,2 -14,0 -45,-2 -64,-2 -8,0 -12,1 -12,4 0,4 3,5 8,5 6,0 12,1 18,2 11,2 16,11 17,28 1,15 1,29 1,104l0 87z"/>
   <path class="fil0" d="M2283 4417c0,41 30,105 132,105 64,0 96,-29 112,-44 40,32 57,37 111,37l37 0c10,0 14,-1 14,-4 0,-4 -2,-5 -7,-5 -9,0 -35,-7 -50,-16 -13,-8 -34,-20 -66,-47 27,-31 46,-75 46,-112 0,-5 -7,-8 -16,-9 -26,-3 -45,-3 -57,-3 -3,0 -7,1 -7,4 0,3 3,4 6,4 7,0 17,2 23,7 7,6 9,15 9,22 0,29 -14,60 -23,73 -9,-8 -67,-61 -83,-79 -38,-42 -79,-80 -79,-125 0,-40 31,-53 51,-53 26,0 43,9 52,21 11,12 14,27 14,40 0,7 1,9 3,9 3,0 5,-1 6,-9 1,-7 5,-44 5,-60 0,-6 0,-10 -8,-12 -13,-6 -34,-10 -57,-10 -82,0 -115,49 -115,87 1,21 4,40 24,67 -28,14 -77,57 -77,112zm148 75c-50,0 -91,-38 -91,-97 0,-38 16,-60 32,-72 9,12 39,46 51,59 12,13 58,58 85,81 -10,10 -41,29 -77,29zm524 -101c3,0 4,1 5,4l38 100c2,6 -1,10 -4,11 -5,0 -7,1 -7,4 0,4 6,4 14,4 38,1 73,1 90,1 17,0 21,-1 21,-5 0,-3 -2,-4 -6,-4 -5,0 -13,0 -20,-1 -10,-3 -23,-10 -41,-52 -31,-72 -106,-265 -118,-291 -4,-11 -7,-15 -11,-15 -5,0 -8,5 -14,19l-118 297c-10,24 -19,40 -41,42 -3,1 -10,1 -14,1 -4,0 -6,1 -6,4 0,4 3,5 9,5 25,0 51,-1 56,-1 15,0 35,1 50,1 5,0 8,-1 8,-5 0,-3 -1,-4 -7,-4l-7 0c-15,0 -19,-6 -19,-14 0,-6 2,-17 7,-29l26 -68c1,-3 1,-4 4,-4l105 0zm-96 -23c-2,0 -2,-2 -2,-4l44 -116c0,-2 1,-4 3,-4 1,0 2,2 2,4l43 117c0,1 0,3 -3,3l-87 0zm305 154c25,0 51,-5 75,-20 34,-22 44,-55 44,-82 0,-45 -20,-78 -77,-121l-14 -10c-39,-30 -50,-46 -50,-68 0,-28 22,-49 57,-49 30,0 44,15 51,24 10,12 12,27 12,31 0,6 2,8 5,8 4,0 5,-3 5,-14 0,-37 2,-50 2,-57 0,-3 -2,-4 -6,-5 -13,-4 -33,-8 -63,-8 -66,0 -110,37 -110,89 0,38 18,72 70,112l22 17c39,31 47,53 47,76 0,25 -21,54 -64,54 -29,0 -57,-13 -67,-48 -3,-8 -5,-18 -5,-24 0,-4 0,-8 -4,-8 -4,0 -6,5 -6,12 -1,8 -3,36 -3,62 0,11 2,13 9,16 21,9 42,13 70,13zm238 0c25,0 52,-5 75,-20 34,-22 45,-55 45,-82 0,-45 -21,-78 -78,-121l-13 -10c-39,-30 -50,-46 -50,-68 0,-28 21,-49 56,-49 31,0 45,15 52,24 10,12 12,27 12,31 0,6 1,8 5,8 3,0 5,-3 5,-14 0,-37 2,-50 2,-57 0,-3 -3,-4 -7,-5 -12,-4 -32,-8 -63,-8 -66,0 -109,37 -109,89 0,38 18,72 70,112l22 17c39,31 46,53 46,76 0,25 -21,54 -63,54 -30,0 -58,-13 -68,-48 -2,-8 -4,-18 -4,-24 0,-4 -1,-8 -5,-8 -4,0 -5,5 -6,12 0,8 -2,36 -2,62 0,11 1,13 9,16 20,9 42,13 69,13zm335 0c120,0 195,-86 195,-194 0,-109 -73,-177 -191,-177 -142,0 -195,104 -195,185 0,84 55,186 191,186zm19 -24c-90,0 -145,-78 -145,-177 0,-117 62,-148 117,-148 77,0 138,66 138,172 0,137 -76,153 -110,153zm413 24c30,0 66,-4 85,-11 8,-4 10,-6 12,-14 5,-16 10,-57 10,-63 0,-4 -1,-7 -4,-7 -4,0 -5,2 -6,9 -2,9 -8,23 -16,32 -19,21 -45,26 -87,26 -63,0 -149,-56 -149,-168 0,-46 9,-91 44,-123 21,-19 48,-29 89,-29 43,0 80,13 96,29 12,13 18,29 18,44 0,6 1,10 5,10 4,0 5,-4 6,-11 1,-9 0,-35 1,-51 1,-16 2,-22 2,-26 0,-3 -1,-5 -7,-6 -14,-1 -29,-5 -47,-8 -22,-2 -39,-4 -69,-4 -70,0 -115,19 -149,50 -45,41 -55,97 -55,129 0,46 12,99 58,140 43,37 98,52 163,52zm172 -144c0,46 0,83 -3,103 -1,14 -4,22 -13,24 -5,0 -10,1 -17,1 -6,0 -8,2 -8,4 0,4 3,5 10,5 19,0 48,-1 59,-1 13,0 43,1 74,1 5,0 9,-1 9,-5 0,-2 -2,-4 -8,-4 -7,0 -17,-1 -24,-1 -14,-2 -17,-11 -19,-24 -2,-20 -2,-57 -2,-103l0 -84c0,-71 0,-85 1,-100 1,-16 5,-24 18,-27 6,-1 9,-1 14,-1 5,0 8,-1 8,-5 0,-3 -4,-4 -10,-4 -18,0 -46,2 -58,2 -14,0 -43,-2 -61,-2 -8,0 -12,1 -12,4 0,4 3,5 8,5 5,0 12,0 17,2 10,2 15,10 16,26 1,15 1,29 1,100l0 84zm301 13c3,0 4,1 5,4l38 100c2,6 -1,10 -4,11 -5,0 -7,1 -7,4 0,4 6,4 14,4 38,1 72,1 90,1 17,0 21,-1 21,-5 0,-3 -2,-4 -6,-4 -6,0 -13,0 -20,-1 -10,-3 -23,-10 -41,-52 -31,-72 -106,-265 -118,-291 -4,-11 -7,-15 -12,-15 -4,0 -7,5 -13,19l-118 297c-10,24 -19,40 -41,42 -3,1 -10,1 -14,1 -4,0 -6,1 -6,4 0,4 3,5 9,5 25,0 51,-1 56,-1 14,0 35,1 50,1 5,0 8,-1 8,-5 0,-3 -1,-4 -7,-4l-7 0c-15,0 -19,-6 -19,-14 0,-6 2,-17 7,-29l25 -68c1,-3 2,-4 5,-4l105 0zm-96 -23c-2,0 -2,-2 -2,-4l44 -116c0,-2 1,-4 3,-4 1,0 2,2 2,4l43 117c0,1 0,3 -3,3l-87 0zm298 10c0,43 0,81 -2,100 -1,14 -4,25 -14,27 -4,0 -10,1 -17,1 -5,0 -7,2 -7,4 0,4 3,5 9,5 19,0 49,-1 60,-1 13,0 43,1 74,1 5,0 9,-1 9,-5 0,-2 -2,-4 -8,-4 -7,0 -17,-1 -24,-1 -14,-2 -17,-13 -18,-26 -3,-20 -3,-58 -3,-101l0 -194 60 1c42,1 55,14 56,27l0 5c1,7 2,9 6,9 2,0 3,-2 4,-7 0,-12 1,-45 1,-55 0,-7 0,-10 -4,-10 -1,0 -5,1 -12,2 -7,1 -18,3 -33,3l-187 0c-16,0 -34,-1 -48,-3 -11,-1 -16,-5 -20,-5 -3,0 -4,3 -6,9 -1,3 -10,47 -10,54 0,5 1,8 5,8 3,0 4,-2 5,-6 1,-4 3,-9 8,-17 7,-10 18,-12 46,-13l70 -2 0 194zm236 0c0,43 0,81 -2,100 -2,14 -4,25 -14,27 -4,0 -10,1 -17,1 -5,0 -7,2 -7,4 0,4 3,5 9,5 10,0 22,-1 33,-1 11,0 22,0 27,0 14,0 29,0 49,1 20,0 46,1 82,1 18,0 22,0 25,-12 3,-9 7,-42 7,-52 0,-5 0,-9 -4,-9 -4,0 -5,2 -5,7 -4,20 -9,29 -22,35 -12,6 -32,6 -44,6 -48,0 -56,-7 -57,-40 0,-14 0,-57 0,-73l0 -38c0,-2 1,-4 3,-4 11,0 58,0 67,1 18,2 24,9 27,19 1,6 1,12 1,17 0,2 1,4 5,4 4,0 4,-5 4,-9 0,-4 1,-22 2,-32 2,-24 4,-32 4,-34 0,-3 -2,-4 -4,-4 -2,0 -4,2 -7,6 -5,5 -12,6 -23,7 -11,1 -65,1 -76,1 -2,0 -3,-2 -3,-5l0 -120c0,-3 1,-5 3,-5 10,0 59,1 68,2 23,3 28,9 31,17 3,6 3,14 3,17 0,5 1,7 4,7 4,0 5,-3 5,-5 1,-6 2,-27 2,-31 2,-22 4,-28 4,-31 0,-3 0,-4 -3,-4 -2,0 -5,1 -7,1 -4,1 -12,2 -21,3 -9,1 -103,1 -118,1 -6,0 -17,-1 -30,-1 -11,0 -25,-1 -38,-1 -7,0 -10,1 -10,5 0,3 3,4 8,4 6,0 14,0 18,1 16,4 20,11 20,27 1,15 1,29 1,100l0 84zm306 144c25,0 51,-5 75,-20 34,-22 44,-55 44,-82 0,-45 -20,-78 -77,-121l-14 -10c-39,-30 -50,-46 -50,-68 0,-28 22,-49 57,-49 30,0 44,15 51,24 10,12 12,27 12,31 0,6 2,8 5,8 4,0 5,-3 5,-14 0,-37 2,-50 2,-57 0,-3 -2,-4 -6,-5 -13,-4 -32,-8 -63,-8 -66,0 -109,37 -109,89 0,38 17,72 70,112l21 17c40,31 47,53 47,76 0,25 -21,54 -64,54 -29,0 -57,-13 -67,-48 -3,-8 -5,-18 -5,-24 0,-4 0,-8 -4,-8 -4,0 -6,5 -6,12 -1,8 -2,36 -2,62 0,11 1,13 9,16 20,9 41,13 69,13z"/>
  </g>
 </g>
</svg>
