<?xml version="1.0" encoding="UTF-8"?>
<!DOCTYPE svg PUBLIC "-//W3C//DTD SVG 1.1//EN" "http://www.w3.org/Graphics/SVG/1.1/DTD/svg11.dtd">
<!-- Creator: CorelDRAW X7 -->
<svg xmlns="http://www.w3.org/2000/svg" xml:space="preserve" width="8.26772in" height="11.6929in" version="1.1" style="shape-rendering:geometricPrecision; text-rendering:geometricPrecision; image-rendering:optimizeQuality; fill-rule:evenodd; clip-rule:evenodd"
viewBox="0 0 8268 11693"
 xmlns:xlink="http://www.w3.org/1999/xlink">
 <defs>
  <style type="text/css">
   <![CDATA[
    .fil0 {fill:#364B98}
    .fil1 {fill:#ED3237}
   ]]>
  </style>
 </defs>
 <g id="Layer_x0020_1">
  <metadata id="CorelCorpID_0Corel-Layer"/>
  <g id="_419906336">
   <path class="fil0" d="M3639 1680l125 0 0 1005c-54,114 -44,90 -159,146 78,-87 34,-918 34,-1151z"/>
   <path class="fil1" d="M3348 1955l241 0 0 836c-75,124 -178,123 -350,50 37,-22 91,-37 99,-106 24,-210 10,-605 10,-780z"/>
   <path class="fil0" d="M2812 2328l251 0c-52,504 198,759 665,513l53 -50c-255,541 -1075,333 -969,-463z"/>
   <path class="fil1" d="M2643 2477l133 0c17,334 48,425 320,608 -331,-126 -453,-214 -453,-608z"/>
  </g>
 </g>
</svg>
